<svg id="Camada_1" data-name="Camada 1" xmlns="http://www.w3.org/2000/svg" viewBox="0 0 800 332"><defs><style>.cls-1{fill:#4caf50;}</style></defs><title>Logos SVG</title><path class="cls-1" d="M133.89,57.74,70,230.22h35.71l11.66-34.5h66.07l11.91,34.5h35.71L166.93,57.74Zm-6.8,108.83L150.16,99h.49l23.08,67.53Z"/><path class="cls-1" d="M460.74,123.81h-.49a50.7,50.7,0,0,0-35.71-14.08c-31.58,0-54.9,25-54.9,60,0,34.49,24.05,58.3,56.6,58.3,14.09,0,26.23-4.83,35-14.08v12.38c0,14.09-11.17,26.24-33.28,26.24-15.54,0-27-4.62-38.62-11.18l-7.53,27c14.09,8,30.36,11.91,48.58,11.91,45.92,0,62.19-26.48,62.19-63.65V111.43H460.74Zm-28.67,75.55c-17,0-30.12-11.9-30.12-30.6,0-18,12.39-30.37,30.12-30.37,17,0,29.88,12.15,29.88,30.12S449.56,199.36,432.07,199.36Z"/><path class="cls-1" d="M549.82,128.67h-.49V111.43H517.51V230.22h31.82V175.31c0-18,10.45-31.09,30.13-31.09,1.94,0,5.1,0,8.5.25V109.73h-2.43C571.68,109.73,558.81,116.53,549.82,128.67Z"/><path class="cls-1" d="M661.08,109.73c-37.89,0-63.16,25.75-63.16,61.21s25.27,61.46,63.16,61.46C698,232.4,724,207.14,724,170.94,724,134.51,698,109.73,661.08,109.73Zm0,94c-18.22,0-30.85-14.34-30.85-32.8,0-18.7,12.39-32.79,30.85-32.79,17.49,0,30.61,13.36,30.61,32.79S678.09,203.74,661.08,203.74Z"/><path class="cls-1" d="M301.86,204c-13,0-22.89-5.61-28.28-15.33l81-18.92c0-34.74-23.32-60-56.84-60-35.23,0-60.25,24.78-60.25,61,0,37.17,25.75,61.7,62.19,61.7,21.7,0,35.88-6.53,45.78-16l-18.26-22C321.11,200.12,312.91,204,301.86,204Zm-4.38-66.56c13.13,0,19.48,7.08,23,13.86L269.8,163.11C271.91,145.48,284.61,137.42,297.48,137.42Z"/></svg>